<?xml version="1.0" standalone="no"?>
<!DOCTYPE svg PUBLIC "-//W3C//DTD SVG 20010904//EN"
 "http://www.w3.org/TR/2001/REC-SVG-20010904/DTD/svg10.dtd">
<svg version="1.0" xmlns="http://www.w3.org/2000/svg"
 width="260.000000pt" height="260.000000pt" viewBox="0 0 260.000000 260.000000"
 preserveAspectRatio="xMidYMid meet">
<metadata>
Created by potrace 1.11, written by Peter Selinger 2001-2013
</metadata>
<g transform="translate(0.000000,260.000000) scale(0.100000,-0.100000)"
fill="#000000" stroke="none">
<path d="M1100 2087 c-3 -3 -50 -10 -105 -17 -55 -6 -113 -15 -130 -20 -16 -5
-50 -14 -75 -21 -291 -78 -551 -234 -662 -398 -18 -25 -34 -48 -38 -51 -5 -4
-27 -50 -50 -105 -37 -91 -41 -238 -9 -336 22 -66 49 -130 59 -139 3 -3 23
-28 43 -57 134 -185 444 -356 747 -413 159 -30 221 -35 420 -35 199 0 261 5
420 35 119 22 246 66 390 133 141 66 310 206 387 322 124 187 124 423 0 610
-157 235 -501 420 -887 477 -77 11 -501 23 -510 15z m461 -61 c52 -8 117 -20
144 -26 28 -6 64 -14 80 -17 17 -3 35 -9 40 -13 6 -4 28 -11 49 -14 45 -9 94
-29 221 -93 150 -76 207 -120 330 -257 27 -30 77 -124 95 -178 30 -93 24 -262
-12 -303 -4 -5 -8 -15 -8 -22 0 -28 -93 -153 -164 -220 -70 -67 -181 -141
-291 -192 -27 -13 -57 -26 -65 -30 -8 -4 -42 -16 -75 -25 -33 -10 -69 -22 -80
-26 -11 -5 -33 -11 -50 -15 -16 -3 -50 -10 -75 -16 -224 -50 -542 -54 -765 -8
-263 53 -513 163 -640 281 -16 15 -33 28 -37 28 -10 0 -113 130 -136 172 -100
177 -80 385 53 555 78 100 172 174 319 252 156 83 326 136 551 169 100 15 411
14 516 -2z"/>
<path d="M1148 1983 c-43 -4 -48 -7 -48 -29 0 -14 6 -24 14 -24 7 0 16 -14 20
-31 10 -54 7 -54 -25 -5 -43 69 -48 72 -101 68 -43 -4 -48 -7 -48 -28 0 -15 6
-24 15 -24 16 0 20 -16 30 -96 5 -50 5 -52 -22 -57 -32 -6 -37 -1 -59 72 -16
48 -16 54 -2 62 22 12 12 62 -12 54 -9 -3 -37 -11 -61 -18 -32 -9 -45 -19 -47
-34 -2 -16 3 -22 19 -25 18 -2 28 -15 41 -53 26 -74 24 -95 -9 -94 -21 0 -38
13 -70 52 -24 30 -38 56 -33 62 11 14 -8 58 -23 52 -6 -3 -32 -13 -57 -22 -25
-10 -52 -24 -60 -32 -13 -13 -12 -17 13 -37 17 -13 27 -31 27 -47 0 -14 5 -41
11 -58 17 -47 -3 -62 -27 -22 -21 35 -23 36 -49 18 -17 -14 -17 -15 1 -45 18
-31 18 -32 -1 -46 -18 -13 -22 -12 -40 17 -11 18 -25 38 -32 45 -22 23 -35 52
-23 52 14 0 13 13 -3 34 -12 17 -16 16 -60 -11 -46 -28 -55 -45 -37 -73 7 -11
12 -12 21 -3 9 9 20 -1 47 -40 19 -29 40 -56 46 -60 8 -6 7 -10 -1 -14 -17 -6
-16 -28 2 -43 12 -10 27 -5 81 31 37 24 72 48 78 55 6 6 28 16 49 23 20 7 39
16 42 21 9 15 -7 40 -26 40 -28 0 -23 29 6 36 29 7 46 -3 27 -15 -9 -6 -9 -13
0 -33 l12 -26 41 19 c63 28 175 60 233 66 41 5 52 9 48 20 -4 8 -6 21 -6 29 0
7 -6 11 -14 8 -9 -3 -15 7 -19 33 -12 68 -8 68 44 -5 49 -70 68 -82 98 -63 11
7 11 18 3 57 -21 95 -23 144 -7 144 9 0 15 10 15 25 0 14 -3 24 -7 23 -5 -1
-29 -3 -55 -5z m-436 -212 c13 -15 14 -21 3 -25 -8 -3 -15 5 -18 20 -5 29 -6
29 15 5z"/>
<path d="M1240 1966 c0 -14 5 -26 10 -26 6 0 10 -32 10 -75 0 -60 -3 -75 -15
-75 -9 0 -15 -9 -15 -25 l0 -25 100 0 100 0 0 40 c0 36 -2 40 -25 40 -16 0
-25 -6 -25 -15 0 -9 -9 -15 -25 -15 -20 0 -25 5 -25 25 0 20 5 25 25 25 20 0
25 5 25 25 0 20 -5 25 -25 25 -20 0 -25 5 -25 25 0 21 5 25 30 25 23 0 30 -4
30 -20 0 -15 7 -20 25 -20 23 0 25 4 25 40 l0 40 -47 0 c-27 0 -72 3 -100 6
-52 7 -53 6 -53 -20z"/>
<path d="M1497 1973 c-10 -10 -8 -46 3 -63 9 -13 12 -12 25 4 21 28 19 66 -3
66 -10 0 -22 -3 -25 -7z"/>
<path d="M1606 1928 c-25 -35 -19 -73 14 -111 33 -38 41 -73 14 -63 -9 3 -18
6 -20 6 -2 0 -4 8 -4 19 0 21 -39 36 -45 18 -2 -7 -6 -26 -9 -44 -5 -30 -3
-33 32 -43 74 -20 117 -5 126 45 8 41 -1 64 -36 94 -27 23 -38 51 -19 51 12 0
37 -32 31 -39 -3 -3 5 -7 16 -9 15 -2 23 4 28 20 11 43 6 56 -25 67 -51 17
-86 14 -103 -11z"/>
<path d="M1871 1868 c-5 -13 -5 -27 -1 -33 11 -13 -51 -130 -69 -130 -7 0 -17
-10 -22 -22 -7 -20 -2 -25 48 -47 30 -15 57 -26 58 -26 8 0 13 46 5 55 -18 22
4 35 43 24 59 -16 106 18 107 78 0 36 -29 62 -113 101 l-48 22 -8 -22z m94
-78 c11 -18 -6 -50 -26 -50 -22 0 -23 1 -7 35 12 26 23 32 33 15z"/>
<path d="M2081 1764 c-9 -11 -10 -19 -3 -26 11 -11 -12 -49 -60 -102 -28 -31
-23 -84 10 -112 52 -46 82 -33 161 65 19 24 39 40 47 37 8 -3 19 4 25 16 9 17
8 23 -4 30 -9 5 -23 15 -31 23 -8 8 -18 15 -23 15 -4 0 -20 11 -34 24 -22 21
-62 47 -71 46 -2 -1 -9 -8 -17 -16z m99 -102 c0 -4 -16 -25 -35 -47 -19 -22
-35 -43 -35 -46 0 -12 -33 -20 -43 -10 -9 9 3 39 26 63 7 7 21 25 31 40 15 23
21 26 37 17 10 -5 19 -13 19 -17z"/>
<path d="M1270 1648 c-20 -56 -42 -132 -57 -195 -5 -23 -8 -23 -164 -23 -88 0
-159 -4 -159 -8 0 -4 10 -14 21 -22 34 -24 182 -130 205 -147 20 -15 21 -19 9
-62 -8 -25 -29 -91 -49 -146 -20 -55 -36 -101 -36 -102 0 -8 20 -1 32 10 7 7
26 22 43 33 16 10 37 24 45 31 8 7 43 33 78 58 63 48 71 49 102 14 3 -3 27
-21 55 -40 27 -18 58 -42 69 -51 11 -10 23 -18 26 -18 4 0 17 -9 30 -20 13
-11 26 -20 30 -20 4 0 -9 46 -28 103 -69 204 -69 190 -2 237 19 13 40 29 46
35 6 6 41 31 77 56 37 24 67 47 67 52 0 4 -72 7 -160 7 -152 0 -160 1 -160 19
0 11 -4 23 -10 26 -5 3 -10 14 -10 24 0 27 -61 211 -70 211 -4 0 -17 -28 -30
-62z"/>
<path d="M1035 1633 c-48 -7 -239 -54 -250 -62 -5 -4 -26 -14 -45 -21 -82 -31
-202 -121 -230 -171 -14 -25 -14 -25 365 -59 147 -13 142 -14 116 9 -23 20
-61 26 -226 36 -49 3 -117 8 -149 12 l-59 5 30 27 c17 14 40 33 51 42 29 25
137 74 222 102 65 22 106 32 218 53 13 3 22 10 19 17 -4 14 -19 16 -62 10z"/>
<path d="M1502 1623 c2 -11 13 -19 28 -21 93 -9 253 -57 350 -105 66 -33 80
-42 131 -89 l29 -26 -57 -6 c-32 -3 -98 -8 -148 -11 -166 -10 -203 -16 -227
-36 l-22 -20 85 6 c46 3 118 10 159 15 41 5 108 12 149 15 105 8 123 13 112
34 -50 93 -255 199 -461 240 -122 23 -132 24 -128 4z"/>
<path d="M279 1607 c-8 -7 -32 -31 -53 -55 -32 -35 -36 -45 -26 -57 7 -9 20
-13 30 -10 19 6 123 -82 114 -97 -3 -5 2 -18 12 -29 17 -19 18 -19 65 30 62
65 71 83 60 114 -11 29 -47 57 -73 57 -10 0 -18 6 -18 14 0 36 -77 59 -111 33z
m51 -62 c10 -12 9 -16 -5 -21 -17 -7 -38 13 -29 28 8 12 20 10 34 -7z m78 -58
c6 -7 7 -19 3 -26 -7 -11 -12 -11 -29 0 -16 10 -18 16 -10 26 13 16 23 16 36
0z"/>
<path d="M2293 1613 c-7 -2 -13 -14 -14 -26 -1 -26 -102 -110 -115 -97 -5 5
-19 1 -32 -8 l-22 -17 54 -58 c46 -49 59 -57 90 -57 40 0 76 28 76 60 0 15 7
20 26 20 15 0 33 8 40 18 25 32 16 65 -32 120 -46 53 -49 54 -71 45z m53 -104
c9 -16 -12 -33 -31 -25 -14 5 -15 9 -5 21 15 18 26 19 36 4z m-77 -62 c8 -10
7 -17 -1 -25 -26 -26 -60 -4 -38 23 15 18 24 19 39 2z"/>
<path d="M855 1289 c-77 -3 -228 -8 -335 -9 -107 -1 -242 -5 -300 -9 -105 -6
-105 -6 -102 -31 7 -70 63 -206 102 -250 31 -36 97 -103 112 -115 74 -57 141
-99 176 -110 17 -5 22 -2 22 12 0 12 -18 27 -50 42 -28 14 -50 28 -50 31 0 3
-15 14 -33 24 -44 26 -151 136 -181 188 -30 53 -62 155 -52 165 4 5 125 11
269 14 144 4 325 10 402 14 77 4 138 5 135 2 -3 -3 -98 -13 -210 -22 -113 -9
-245 -21 -295 -26 -49 -5 -125 -12 -168 -15 -43 -4 -80 -11 -83 -16 -10 -15
54 -132 95 -175 100 -105 231 -181 231 -134 0 4 -10 13 -22 19 -64 30 -201
155 -231 209 l-27 51 82 10 c236 29 379 40 367 27 -6 -5 -176 -41 -271 -56
-38 -6 -68 -14 -68 -18 0 -3 17 -17 38 -31 20 -14 43 -30 49 -37 7 -6 29 -21
48 -33 28 -18 39 -20 48 -11 9 10 6 17 -13 32 -14 11 -38 31 -55 44 l-30 25
29 0 c16 0 45 4 65 9 20 6 79 17 131 26 107 18 177 32 233 47 103 26 5 -19
-123 -57 -86 -25 -172 -60 -172 -69 1 -9 103 -47 177 -65 22 -5 66 -16 98 -25
32 -9 67 -16 77 -16 28 0 25 29 -2 34 -103 21 -185 40 -193 46 -5 4 -23 11
-40 15 l-30 7 40 15 c22 8 49 19 60 24 11 4 45 16 75 25 48 14 84 26 190 65
14 5 31 19 38 30 11 18 11 23 -5 35 -10 7 -23 14 -28 14 -6 0 -17 9 -25 20 -8
11 -24 19 -35 18 -11 -1 -83 -5 -160 -9z m-60 -89 c-11 -5 -33 -8 -50 -8 -29
1 -29 1 5 8 49 10 69 10 45 0z"/>
<path d="M1548 1281 c-7 -12 -19 -21 -26 -21 -7 0 -20 -7 -29 -15 -12 -13 -13
-18 -2 -33 7 -9 14 -18 15 -20 2 -4 118 -46 259 -93 66 -23 121 -42 123 -44 6
-6 -164 -55 -218 -62 -40 -6 -56 -13 -58 -26 -4 -22 18 -22 95 -1 32 9 76 20
98 25 72 18 176 56 178 65 1 5 -25 18 -58 30 -33 11 -67 23 -75 26 -8 4 -40
13 -70 22 -55 17 -73 23 -120 45 l-25 12 25 -6 c14 -3 50 -10 80 -16 30 -6 75
-15 100 -20 43 -8 179 -33 264 -47 l39 -7 -33 -25 c-67 -50 -73 -57 -66 -68 9
-16 22 -15 38 1 7 8 24 19 36 26 23 12 32 19 90 67 l26 21 -70 12 c-38 6 -89
15 -114 20 -80 16 -144 29 -208 41 -86 17 -73 22 24 10 43 -5 126 -14 184 -20
181 -18 273 -29 278 -34 7 -8 -28 -76 -56 -108 -14 -15 -51 -47 -81 -71 -31
-23 -58 -45 -61 -48 -3 -3 -20 -14 -37 -23 -33 -17 -41 -30 -24 -41 10 -6 82
28 115 55 41 32 111 95 114 103 2 4 10 13 17 20 20 20 76 137 71 146 -3 4 -40
11 -83 14 -43 4 -123 11 -178 17 -55 5 -187 17 -294 25 -107 8 -197 18 -200
21 -3 4 57 3 134 -1 77 -4 258 -10 402 -14 144 -3 265 -9 269 -13 13 -14 -34
-143 -63 -176 -7 -7 -13 -17 -13 -21 0 -10 -137 -151 -147 -151 -5 0 -18 -8
-29 -17 -21 -19 -51 -38 -96 -60 -33 -17 -28 -47 6 -37 33 10 101 53 174 109
18 14 85 84 114 120 43 52 98 190 98 246 0 23 -4 29 -22 29 -148 1 -815 21
-850 26 -40 5 -49 3 -60 -15z"/>
<path d="M675 908 c-11 -29 -15 -56 -10 -84 3 -24 2 -45 -4 -48 -5 -3 -7 3 -4
14 3 11 1 20 -4 20 -12 0 -33 -44 -33 -69 0 -20 25 -35 42 -25 19 12 50 99 44
126 -4 21 -2 26 9 21 10 -3 15 1 15 15 0 12 5 24 10 27 6 3 10 -3 10 -14 0
-23 -12 -54 -48 -128 -14 -29 -23 -55 -20 -59 6 -6 61 -21 110 -31 22 -4 27
-1 31 18 4 23 4 23 6 -2 0 -15 7 -29 15 -32 9 -4 18 14 30 63 9 37 16 76 16
87 0 10 4 23 9 29 19 20 22 52 5 58 -10 4 -21 1 -26 -6 -6 -10 -8 -9 -8 3 0
16 -31 27 -90 32 -14 1 -31 8 -38 15 -26 24 -49 14 -67 -30z m134 -120 c-8
-35 -18 -58 -26 -58 -9 0 -12 8 -9 23 3 12 8 39 11 61 4 21 12 47 18 58 12 18
12 18 15 -3 2 -12 -2 -48 -9 -81z m-59 -27 c0 -6 -4 -13 -10 -16 -5 -3 -10 1
-10 9 0 9 5 16 10 16 6 0 10 -4 10 -9z m77 -33 c-3 -8 -6 -5 -6 6 -1 11 2 17
5 13 3 -3 4 -12 1 -19z"/>
<path d="M1870 919 c0 -37 13 -64 54 -109 17 -19 23 -28 13 -21 -24 19 -33 7
-18 -25 23 -51 4 -34 -22 18 -36 75 -42 93 -45 131 -2 18 -28 22 -52 7 -13 -8
-13 -13 2 -42 19 -37 35 -148 21 -148 -4 0 -17 16 -27 35 -14 25 -17 46 -13
77 9 62 -2 74 -50 61 -21 -7 -65 -15 -98 -18 -91 -10 -95 -12 -95 -50 0 -43 9
-65 26 -65 14 0 19 -42 14 -114 -1 -23 1 -28 15 -22 9 3 21 6 26 6 12 0 12 47
-1 55 -15 9 -12 58 4 90 l15 28 6 -36 c4 -20 8 -58 9 -84 l1 -48 38 3 c21 2
80 14 130 27 160 42 152 38 155 74 4 36 -22 101 -46 115 -8 5 -10 11 -5 15 6
4 6 19 1 39 -7 25 -14 32 -33 32 -21 0 -25 -5 -25 -31z m-174 -109 c8 0 14 8
14 18 1 40 29 -35 29 -78 0 -40 -1 -43 -13 -27 -18 23 -30 22 -23 -3 3 -11 0
-20 -5 -20 -7 0 -8 15 -4 39 4 29 2 44 -9 55 -8 8 -14 23 -14 33 1 17 2 17 6
1 2 -10 11 -18 19 -18z m171 -62 c-3 -8 -6 -5 -6 6 -1 11 2 17 5 13 3 -3 4
-12 1 -19z"/>
<path d="M956 865 c-3 -8 -3 -21 -1 -27 6 -18 -30 -150 -38 -142 -4 4 -7 -4
-7 -19 0 -32 1 -33 77 -41 54 -6 62 -5 66 11 4 14 5 13 6 -4 0 -13 7 -23 16
-23 17 0 21 18 30 114 3 38 10 76 14 84 5 9 6 -16 3 -56 -2 -38 -2 -86 2 -106
6 -31 11 -36 35 -36 32 0 47 24 54 88 5 39 3 42 -19 42 -21 0 -24 -4 -24 -41
0 -24 -4 -38 -10 -34 -13 8 -13 96 0 115 9 13 12 12 25 -4 18 -24 21 -21 28
32 l5 42 -33 0 c-19 0 -37 -5 -40 -10 -4 -6 -12 -4 -21 5 -9 8 -26 15 -39 15
-13 0 -30 3 -38 6 -10 3 -17 -2 -20 -13 -4 -16 -5 -16 -6 0 -1 22 -56 24 -65
2z m70 -114 c-15 -96 -26 -99 -26 -8 0 68 2 77 18 77 17 0 17 -5 8 -69z m34
-46 c0 -14 -4 -25 -9 -25 -4 0 -6 11 -3 25 2 14 6 25 8 25 2 0 4 -11 4 -25z
m-94 -12 c-10 -10 -19 5 -10 18 6 11 8 11 12 0 2 -7 1 -15 -2 -18z"/>
<path d="M1230 843 c-1 -10 -2 -64 -3 -120 l-3 -103 83 0 83 0 0 28 1 27 15
-27 c16 -31 58 -38 68 -12 10 26 7 159 -5 193 -8 22 -17 31 -33 31 -34 0 -46
-19 -46 -72 0 -35 -4 -48 -14 -48 -10 0 -16 -14 -19 -37 -3 -21 -3 6 -1 60 l3
97 -64 0 c-55 0 -65 -3 -65 -17z m50 -58 c0 -8 5 -15 10 -15 6 0 10 7 10 15 0
8 5 15 10 15 6 0 10 -30 10 -70 0 -40 -4 -70 -10 -70 -5 0 -10 9 -10 20 0 27
-18 25 -30 -2 -8 -22 -9 -22 -9 5 -1 15 4 27 9 27 6 0 10 14 10 30 0 17 -4 30
-10 30 -5 0 -10 7 -10 15 0 8 5 15 10 15 6 0 10 -7 10 -15z m170 -56 c0 -32
-4 -59 -9 -59 -12 0 -26 104 -16 119 14 24 25 -3 25 -60z"/>
<path d="M1497 673 c-7 -12 4 -83 13 -83 10 0 23 67 15 80 -7 12 -22 13 -28 3z"/>
</g>
</svg>
